<svg width="108" height="17" viewBox="0 0 108 17" fill="none" xmlns="http://www.w3.org/2000/svg">
<g clip-path="url(#clip0_601_157)">
<path d="M21.75 0.75H2.25C1.14543 0.75 0.25 1.64543 0.25 2.75V14.25C0.25 15.3546 1.14543 16.25 2.25 16.25H21.75C22.8546 16.25 23.75 15.3546 23.75 14.25V2.75C23.75 1.64543 22.8546 0.75 21.75 0.75Z" fill="#FAFAFA" stroke="black" stroke-opacity="0.2" stroke-width="0.5"/>
<path d="M2.78773 6.41444C2.26459 6.12751 1.66754 5.89674 1 5.73659L1.028 5.61188H3.76498C4.13596 5.62489 4.43699 5.73651 4.53495 6.13071L5.12977 8.96659L5.31198 9.82073L6.97797 5.61188H8.77679L6.10288 11.7775H4.30397L2.78773 6.41444ZM10.1 11.7841H8.39883L9.46285 5.61188H11.1639L10.1 11.7841ZM16.2668 5.76277L16.0354 7.09559L15.8816 7.03004C15.5737 6.90525 15.1674 6.78054 14.6144 6.79371C13.9427 6.79371 13.6415 7.06277 13.6345 7.32546C13.6345 7.61441 13.9989 7.80484 14.5939 8.08725C15.574 8.52719 16.0286 9.06557 16.0218 9.76819C16.0081 11.0486 14.846 11.8761 13.0611 11.8761C12.2979 11.8694 11.5628 11.7181 11.1638 11.5476L11.4019 10.162L11.6259 10.2607C12.1789 10.4907 12.5428 10.589 13.222 10.589C13.7118 10.589 14.2369 10.3984 14.2436 9.98488C14.2436 9.71565 14.0199 9.51851 13.3617 9.21646C12.7178 8.92087 11.8568 8.42848 11.8708 7.54198C11.8781 6.34042 13.0611 5.5 14.741 5.5C15.399 5.5 15.9312 5.63789 16.2668 5.76277ZM18.5278 9.59749H19.9417C19.8718 9.28889 19.5496 7.81147 19.5496 7.81147L19.4307 7.27964C19.3467 7.50943 19.1999 7.88373 19.2069 7.87056C19.2069 7.87056 18.6678 9.2429 18.5278 9.59749ZM20.6276 5.61188L22 11.784H20.4249C20.4249 11.784 20.2708 11.0748 20.2219 10.8581H18.0378C17.9746 11.0222 17.6808 11.784 17.6808 11.784H15.8958L18.4226 6.12399C18.5977 5.72342 18.906 5.61188 19.3118 5.61188H20.6276Z" fill="#171E6C"/>
</g>
<g clip-path="url(#clip1_601_157)">
<path d="M50 0.5H30C28.8954 0.5 28 1.39543 28 2.5V14.5C28 15.6046 28.8954 16.5 30 16.5H50C51.1046 16.5 52 15.6046 52 14.5V2.5C52 1.39543 51.1046 0.5 50 0.5Z" fill="#252525"/>
<path d="M37 13.5C39.7614 13.5 42 11.2614 42 8.5C42 5.73858 39.7614 3.5 37 3.5C34.2386 3.5 32 5.73858 32 8.5C32 11.2614 34.2386 13.5 37 13.5Z" fill="#EB001B"/>
<path d="M43 13.5C45.7614 13.5 48 11.2614 48 8.5C48 5.73858 45.7614 3.5 43 3.5C40.2386 3.5 38 5.73858 38 8.5C38 11.2614 40.2386 13.5 43 13.5Z" fill="#F79E1B"/>
<path fill-rule="evenodd" clip-rule="evenodd" d="M40 4.49963C41.2144 5.41184 42 6.86418 42 8.5C42 10.1358 41.2144 11.5882 40 12.5004C38.7856 11.5882 38 10.1358 38 8.5C38 6.86418 38.7856 5.41184 40 4.49963Z" fill="#FF5F00"/>
</g>
<g clip-path="url(#clip2_601_157)">
<path d="M78 0.5H58C56.8954 0.5 56 1.39543 56 2.5V14.5C56 15.6046 56.8954 16.5 58 16.5H78C79.1046 16.5 80 15.6046 80 14.5V2.5C80 1.39543 79.1046 0.5 78 0.5Z" fill="#016FD0"/>
<path fill-rule="evenodd" clip-rule="evenodd" d="M69.7637 13.8939V8.1925L79.9112 8.20161V9.77651L78.7383 11.0299L79.9112 12.2948V13.9031H78.0386L77.0434 12.8049L76.0553 13.9072L69.7637 13.8939Z" fill="#FFFFFE"/>
<path fill-rule="evenodd" clip-rule="evenodd" d="M70.4414 13.2688V8.81995H74.2137V9.84483H71.6628V10.5405H74.1529V11.5483H71.6628V12.2317H74.2137V13.2688H70.4414Z" fill="#016FD0"/>
<path fill-rule="evenodd" clip-rule="evenodd" d="M74.1954 13.2687L76.2827 11.0417L74.1953 8.81995H75.811L77.0865 10.23L78.3656 8.81995H79.9117V8.85495L77.8689 11.0417L79.9117 13.2056V13.2687H78.35L77.0519 11.8446L75.7671 13.2687H74.1954Z" fill="#016FD0"/>
<path fill-rule="evenodd" clip-rule="evenodd" d="M70.2369 3.13196H72.6829L73.5421 5.08281V3.13196H76.5619L77.0827 4.59353L77.6052 3.13196H79.9111V8.83335H67.7246L70.2369 3.13196Z" fill="#FFFFFE"/>
<path fill-rule="evenodd" clip-rule="evenodd" d="M70.7006 3.75134L68.7266 8.19651H70.0805L70.4529 7.30635H72.4708L72.843 8.19651H74.2306L72.2648 3.75134H70.7006ZM70.8702 6.30878L71.4622 4.89371L72.0538 6.30878H70.8702Z" fill="#016FD0"/>
<path fill-rule="evenodd" clip-rule="evenodd" d="M74.2129 8.19569V3.75061L76.116 3.75715L77.0953 6.48988L78.0809 3.75061H79.9125V8.19569L78.7339 8.20612V5.15278L77.6213 8.19569H76.5455L75.4099 5.14235V8.19569H74.2129Z" fill="#016FD0"/>
</g>
<g clip-path="url(#clip3_601_157)">
<path d="M105.997 16.2499L105.999 16.2499C106.954 16.2581 107.738 15.4773 107.75 14.5042L107.75 2.5063C107.746 2.03569 107.559 1.58617 107.23 1.2568C106.901 0.928269 106.459 0.746149 105.997 0.750071L86.0006 0.750062C85.5411 0.746149 85.0986 0.928269 84.7703 1.2568C84.4411 1.58617 84.2538 2.03569 84.25 2.50426L84.25 14.4937C84.2538 14.9643 84.4411 15.4138 84.7703 15.7432C85.0986 16.0717 85.5411 16.2538 86.0028 16.2499H105.997ZM105.996 16.7499C105.996 16.7499 105.995 16.7499 105.995 16.7499L105.997 16.7499H105.996Z" fill="#FAFAFA" stroke="black" stroke-opacity="0.2" stroke-width="0.5"/>
<path d="M96.6133 16.4999H105.998C106.525 16.5043 107.032 16.2993 107.407 15.9299C107.783 15.5605 107.996 15.057 108.001 14.5303V12.1716C104.457 14.2059 100.614 15.6668 96.6133 16.4999Z" fill="#F27712"/>
<path d="M107.173 9.79643H106.321L105.361 8.53023H105.27V9.79643H104.574V6.65161H105.601C106.403 6.65161 106.867 6.98264 106.867 7.5785C106.867 8.06678 106.577 8.38126 106.056 8.48057L107.173 9.79643ZM106.147 7.60333C106.147 7.29712 105.915 7.13988 105.485 7.13988H105.27V8.09161H105.468C105.915 8.09161 106.147 7.92609 106.147 7.60333ZM102.141 6.65161H104.111V7.18126H102.836V7.88471H104.061V8.42264H102.836V9.27505H104.111V9.80471H102.141V6.65161ZM99.9067 9.87919L98.4005 6.64333H99.1619L100.114 8.76195L101.074 6.64333H101.818L100.296 9.87919H99.9233H99.9067ZM93.6088 9.87092C92.5495 9.87092 91.7219 9.15092 91.7219 8.21574C91.7219 7.3054 92.5661 6.56885 93.6254 6.56885C93.9233 6.56885 94.1716 6.62678 94.4778 6.75919V7.48747C94.2459 7.25965 93.9339 7.13187 93.6088 7.13161C92.9467 7.13161 92.4419 7.61161 92.4419 8.21574C92.4419 8.85299 92.9385 9.30816 93.6419 9.30816C93.9564 9.30816 94.1964 9.20885 94.4778 8.96057V9.68885C94.1633 9.82126 93.8985 9.87092 93.6088 9.87092ZM91.5067 8.83643C91.5067 9.44885 91.0019 9.87092 90.2736 9.87092C89.744 9.87092 89.3633 9.68885 89.0405 9.27505L89.4957 8.88609C89.653 9.16747 89.9178 9.30816 90.2488 9.30816C90.5633 9.30816 90.7867 9.11781 90.7867 8.86954C90.7867 8.72885 90.7205 8.62126 90.5798 8.5385C90.4256 8.46365 90.265 8.40271 90.0998 8.35643C89.4461 8.14954 89.2226 7.92609 89.2226 7.48747C89.2226 6.97436 89.7026 6.5854 90.3316 6.5854C90.7288 6.5854 91.0847 6.70954 91.3826 6.94126L91.0185 7.35505C90.8741 7.19683 90.6699 7.10671 90.4557 7.10678C90.1578 7.10678 89.9426 7.25574 89.9426 7.45436C89.9426 7.61988 90.0667 7.71092 90.4805 7.85161C91.275 8.09988 91.5067 8.33161 91.5067 8.84471V8.83643ZM88.0888 6.65161H88.784V9.80471H88.0888V6.65161ZM85.8543 9.80471H84.8281V6.65161H85.8543C86.9798 6.65161 87.7578 7.29712 87.7578 8.22402C87.7578 8.69574 87.5261 9.14264 87.1205 9.44057C86.773 9.68885 86.384 9.80471 85.8461 9.80471H85.8543ZM86.6654 7.43781C86.4336 7.25574 86.1688 7.18954 85.7136 7.18954H85.5233V9.27505H85.7136C86.1605 9.27505 86.4419 9.1923 86.6654 9.02678C86.9054 8.82816 87.0461 8.53023 87.0461 8.22402C87.0461 7.91781 86.9054 7.62816 86.6654 7.43781Z" fill="#20474E"/>
<path d="M96.413 6.56885C95.5026 6.56885 94.7578 7.29712 94.7578 8.19919C94.7578 9.15919 95.4695 9.87919 96.413 9.87919C97.3399 9.87919 98.0682 9.15092 98.0682 8.22402C98.0682 7.29712 97.3482 6.56885 96.413 6.56885Z" fill="#F27712"/>
</g>
<defs>
<clipPath id="clip0_601_157">
<rect width="24" height="16" fill="white" transform="translate(0 0.5)"/>
</clipPath>
<clipPath id="clip1_601_157">
<rect width="24" height="16" fill="white" transform="translate(28 0.5)"/>
</clipPath>
<clipPath id="clip2_601_157">
<rect width="24" height="16" fill="white" transform="translate(56 0.5)"/>
</clipPath>
<clipPath id="clip3_601_157">
<rect width="24" height="16" fill="white" transform="translate(84 0.5)"/>
</clipPath>
</defs>
</svg>
